<mxfile host="app.diagrams.net" agent="Mozilla/5.0 (X11; Linux x86_64) AppleWebKit/537.36 (KHTML, like Gecko) Chrome/134.0.0.0 Safari/537.36" version="26.2.10">
  <diagram id="C5RBs43oDa-KdzZeNtuy" name="Page-1">
    <mxGraphModel dx="356" dy="583" grid="1" gridSize="10" guides="1" tooltips="1" connect="1" arrows="1" fold="1" page="1" pageScale="1" pageWidth="827" pageHeight="1169" math="0" shadow="0">
      <root>
        <mxCell id="WIyWlLk6GJQsqaUBKTNV-0" />
        <mxCell id="WIyWlLk6GJQsqaUBKTNV-1" parent="WIyWlLk6GJQsqaUBKTNV-0" />
        <mxCell id="QhAMZW8vx8BIPs0i-Lc7-16" value="" style="edgeStyle=orthogonalEdgeStyle;rounded=0;orthogonalLoop=1;jettySize=auto;html=1;" edge="1" parent="WIyWlLk6GJQsqaUBKTNV-1" source="QhAMZW8vx8BIPs0i-Lc7-0" target="QhAMZW8vx8BIPs0i-Lc7-15">
          <mxGeometry relative="1" as="geometry" />
        </mxCell>
        <mxCell id="QhAMZW8vx8BIPs0i-Lc7-0" value="Start&lt;br&gt;i.e. tilkobl strÃ¸m" style="html=1;dashed=0;whiteSpace=wrap;shape=mxgraph.dfd.start" vertex="1" parent="WIyWlLk6GJQsqaUBKTNV-1">
          <mxGeometry x="67.5" y="30" width="100" height="50" as="geometry" />
        </mxCell>
        <mxCell id="QhAMZW8vx8BIPs0i-Lc7-18" value="" style="edgeStyle=orthogonalEdgeStyle;rounded=0;orthogonalLoop=1;jettySize=auto;html=1;" edge="1" parent="WIyWlLk6GJQsqaUBKTNV-1" source="QhAMZW8vx8BIPs0i-Lc7-15" target="QhAMZW8vx8BIPs0i-Lc7-17">
          <mxGeometry relative="1" as="geometry" />
        </mxCell>
        <mxCell id="QhAMZW8vx8BIPs0i-Lc7-15" value="System startup, software startup" style="verticalLabelPosition=bottom;verticalAlign=top;html=1;shape=process;whiteSpace=wrap;rounded=1;size=0.14;arcSize=6;align=center;spacingTop=-50;" vertex="1" parent="WIyWlLk6GJQsqaUBKTNV-1">
          <mxGeometry x="52.5" y="120" width="130" height="60" as="geometry" />
        </mxCell>
        <mxCell id="QhAMZW8vx8BIPs0i-Lc7-29" value="" style="edgeStyle=orthogonalEdgeStyle;rounded=0;orthogonalLoop=1;jettySize=auto;html=1;" edge="1" parent="WIyWlLk6GJQsqaUBKTNV-1" source="QhAMZW8vx8BIPs0i-Lc7-17" target="QhAMZW8vx8BIPs0i-Lc7-28">
          <mxGeometry relative="1" as="geometry" />
        </mxCell>
        <mxCell id="QhAMZW8vx8BIPs0i-Lc7-17" value="Start Hjemmeside" style="verticalLabelPosition=bottom;verticalAlign=top;html=1;shape=process;whiteSpace=wrap;rounded=1;size=0.14;arcSize=6;align=center;spacingTop=-50;" vertex="1" parent="WIyWlLk6GJQsqaUBKTNV-1">
          <mxGeometry x="52.49999999999999" y="220" width="130" height="60" as="geometry" />
        </mxCell>
        <mxCell id="QhAMZW8vx8BIPs0i-Lc7-23" value="Opdater hjemmeside&lt;br&gt;med DB" style="verticalLabelPosition=bottom;verticalAlign=top;html=1;shape=process;whiteSpace=wrap;rounded=1;size=0.14;arcSize=6;align=center;spacingTop=-50;" vertex="1" parent="WIyWlLk6GJQsqaUBKTNV-1">
          <mxGeometry x="35" y="540" width="165" height="60" as="geometry" />
        </mxCell>
        <mxCell id="QhAMZW8vx8BIPs0i-Lc7-26" value="" style="edgeStyle=orthogonalEdgeStyle;rounded=0;orthogonalLoop=1;jettySize=auto;html=1;" edge="1" parent="WIyWlLk6GJQsqaUBKTNV-1" source="QhAMZW8vx8BIPs0i-Lc7-25" target="QhAMZW8vx8BIPs0i-Lc7-23">
          <mxGeometry relative="1" as="geometry" />
        </mxCell>
        <mxCell id="QhAMZW8vx8BIPs0i-Lc7-25" value="Affaldsdatabase" style="shape=cylinder3;whiteSpace=wrap;html=1;boundedLbl=1;backgroundOutline=1;size=15;" vertex="1" parent="WIyWlLk6GJQsqaUBKTNV-1">
          <mxGeometry x="71.25" y="420" width="92.5" height="70" as="geometry" />
        </mxCell>
        <mxCell id="QhAMZW8vx8BIPs0i-Lc7-31" value="" style="edgeStyle=orthogonalEdgeStyle;rounded=0;orthogonalLoop=1;jettySize=auto;html=1;" edge="1" parent="WIyWlLk6GJQsqaUBKTNV-1" source="QhAMZW8vx8BIPs0i-Lc7-28" target="QhAMZW8vx8BIPs0i-Lc7-25">
          <mxGeometry relative="1" as="geometry" />
        </mxCell>
        <mxCell id="QhAMZW8vx8BIPs0i-Lc7-28" value="Hent DB-informationer" style="strokeWidth=2;html=1;shape=mxgraph.flowchart.document2;whiteSpace=wrap;size=0.25;" vertex="1" parent="WIyWlLk6GJQsqaUBKTNV-1">
          <mxGeometry x="67.5" y="320" width="100" height="60" as="geometry" />
        </mxCell>
      </root>
    </mxGraphModel>
  </diagram>
</mxfile>
